<svg width="29" height="29" viewBox="0 0 29 29" fill="none" xmlns="http://www.w3.org/2000/svg">
<circle cx="14.5" cy="14.5" r="14.5" fill="#E39632"/>
<path d="M9.84615 5.96875C9.35652 5.96875 8.88695 6.16325 8.54073 6.50948C8.19451 6.8557 8 7.32527 8 7.8149V21.3534C8 21.6931 8.27569 21.9688 8.61538 21.9688H20.5153C20.6785 21.9688 20.835 21.9039 20.9504 21.7885C21.0658 21.6731 21.1307 21.5166 21.1307 21.3534V13.9688C21.1307 13.7263 21.1405 13.5 21.1307 13.2623C21.1307 13 21.1307 12.9106 21.1307 12.6289C21.1307 12.3472 21.1307 12.4258 21.1307 12.4258C21.1307 12.4258 21.1307 12.4688 21.1307 12.1953V11.8828L21.1307 7.8149C21.1307 7.32527 20.9362 6.8557 20.5899 6.50948C20.2437 6.16325 19.7741 5.96875 19.2845 5.96875H9.84615ZM9.23077 7.8149C9.23077 7.65169 9.2956 7.49517 9.41101 7.37976C9.52642 7.26435 9.68294 7.19952 9.84615 7.19952H19.2845C19.4477 7.19952 19.6042 7.26435 19.7197 7.37976C19.8351 7.49517 19.8999 7.65169 19.8999 7.8149V12.7227C19.8999 13.0623 19.8999 12.8789 19.8999 13.1211V13.2623C19.8999 13.4688 19.8999 13.3906 19.8999 13.5525C19.8999 13.9688 19.8999 13.8055 19.8999 13.9688V20.738H18.2564V18.4816C18.2564 18.3184 18.1916 18.1618 18.0762 18.0464C17.9608 17.931 17.8042 17.8662 17.641 17.8662H11.4872C11.324 17.8662 11.1674 17.931 11.052 18.0464C10.9366 18.1618 10.8718 18.3184 10.8718 18.4816V20.738H9.23077V7.8149ZM17.0256 19.097V20.738H15.1795V19.097H17.0256ZM13.9487 19.097V20.738H12.1026V19.097H13.9487Z" fill="white"/>
<path d="M10.8717 15.9746C10.8717 15.757 10.9582 15.5483 11.112 15.3944C11.2659 15.2405 11.4746 15.1541 11.6922 15.1541C11.9098 15.1541 12.1185 15.2405 12.2724 15.3944C12.4263 15.5483 12.5127 15.757 12.5127 15.9746C12.5127 16.1922 12.4263 16.4009 12.2724 16.5548C12.1185 16.7086 11.9098 16.7951 11.6922 16.7951C11.4746 16.7951 11.2659 16.7086 11.112 16.5548C10.9582 16.4009 10.8717 16.1922 10.8717 15.9746Z" fill="white"/>
<path d="M10.87 12.8205C10.87 12.6029 10.9564 12.3942 11.1103 12.2403C11.2642 12.0864 11.4729 12 11.6905 12C11.9081 12 12.1168 12.0864 12.2707 12.2403C12.4246 12.3942 12.511 12.6029 12.511 12.8205C12.511 13.0381 12.4246 13.2468 12.2707 13.4007C12.1168 13.5546 11.9081 13.641 11.6905 13.641C11.4729 13.641 11.2642 13.5546 11.1103 13.4007C10.9564 13.2468 10.87 13.0381 10.87 12.8205Z" fill="white"/>
<path d="M10.87 9.82051C10.87 9.6029 10.9564 9.3942 11.1103 9.24032C11.2642 9.08645 11.4729 9 11.6905 9C11.9081 9 12.1168 9.08645 12.2707 9.24032C12.4246 9.3942 12.511 9.6029 12.511 9.82051C12.511 10.0381 12.4246 10.2468 12.2707 10.4007C12.1168 10.5546 11.9081 10.641 11.6905 10.641C11.4729 10.641 11.2642 10.5546 11.1103 10.4007C10.9564 10.2468 10.87 10.0381 10.87 9.82051Z" fill="white"/>
<path d="M14.3332 15.1541C14.1156 15.1541 13.9069 15.2405 13.753 15.3944C13.5991 15.5483 13.5127 15.757 13.5127 15.9746C13.5127 16.1922 13.5991 16.4009 13.753 16.5548C13.9069 16.7086 14.1156 16.7951 14.3332 16.7951C14.5508 16.7951 14.7595 16.7086 14.9134 16.5548C15.0673 16.4009 15.1537 16.1922 15.1537 15.9746C15.1537 15.757 15.0673 15.5483 14.9134 15.3944C14.7595 15.2405 14.5508 15.1541 14.3332 15.1541Z" fill="white"/>
<path d="M14.3305 12C14.1129 12 13.9042 12.0864 13.7503 12.2403C13.5965 12.3942 13.51 12.6029 13.51 12.8205C13.51 13.0381 13.5965 13.2468 13.7503 13.4007C13.9042 13.5546 14.1129 13.641 14.3305 13.641C14.5481 13.641 14.7568 13.5546 14.9107 13.4007C15.0646 13.2468 15.151 13.0381 15.151 12.8205C15.151 12.6029 15.0646 12.3942 14.9107 12.2403C14.7568 12.0864 14.5481 12 14.3305 12Z" fill="white"/>
<path d="M14.3305 9C14.1129 9 13.9042 9.08645 13.7503 9.24032C13.5965 9.3942 13.51 9.6029 13.51 9.82051C13.51 10.0381 13.5965 10.2468 13.7503 10.4007C13.9042 10.5546 14.1129 10.641 14.3305 10.641C14.5481 10.641 14.7568 10.5546 14.9107 10.4007C15.0646 10.2468 15.151 10.0381 15.151 9.82051C15.151 9.6029 15.0646 9.3942 14.9107 9.24032C14.7568 9.08645 14.5481 9 14.3305 9Z" fill="white"/>
<path d="M16.1537 15.9746C16.1537 15.757 16.2402 15.5483 16.3941 15.3944C16.5479 15.2405 16.7566 15.1541 16.9743 15.1541C17.1919 15.1541 17.4006 15.2405 17.5545 15.3944C17.7083 15.5483 17.7948 15.757 17.7948 15.9746C17.7948 16.1922 17.7083 16.4009 17.5545 16.5548C17.4006 16.7086 17.1919 16.7951 16.9743 16.7951C16.7566 16.7951 16.5479 16.7086 16.3941 16.5548C16.2402 16.4009 16.1537 16.1922 16.1537 15.9746Z" fill="white"/>
<path d="M16.15 12.8205C16.15 12.6029 16.2365 12.3942 16.3903 12.2403C16.5442 12.0864 16.7529 12 16.9705 12C17.1882 12 17.3969 12.0864 17.5507 12.2403C17.7046 12.3942 17.791 12.6029 17.791 12.8205C17.791 13.0381 17.7046 13.2468 17.5507 13.4007C17.3969 13.5546 17.1882 13.641 16.9705 13.641C16.7529 13.641 16.5442 13.5546 16.3903 13.4007C16.2365 13.2468 16.15 13.0381 16.15 12.8205Z" fill="white"/>
<path d="M16.15 9.82051C16.15 9.6029 16.2365 9.3942 16.3903 9.24032C16.5442 9.08645 16.7529 9 16.9705 9C17.1882 9 17.3969 9.08645 17.5507 9.24032C17.7046 9.3942 17.791 9.6029 17.791 9.82051C17.791 10.0381 17.7046 10.2468 17.5507 10.4007C17.3969 10.5546 17.1882 10.641 16.9705 10.641C16.7529 10.641 16.5442 10.5546 16.3903 10.4007C16.2365 10.2468 16.15 10.0381 16.15 9.82051Z" fill="white"/>
</svg>