<svg width="16" height="17" viewBox="0 0 16 17" fill="none" xmlns="http://www.w3.org/2000/svg">
<path d="M10.0932 0.5C11.845 0.5 12.6807 0.661375 13.5487 1.12562C14.3339 1.54553 14.9545 2.16609 15.3744 2.95127C15.8386 3.81933 16 4.65499 16 6.40684V10.5932C16 12.345 15.8386 13.1807 15.3744 14.0487C14.9545 14.8339 14.3339 15.4545 13.5487 15.8744C12.6807 16.3386 11.845 16.5 10.0932 16.5H5.90684C4.15499 16.5 3.31933 16.3386 2.45127 15.8744C1.66609 15.4545 1.04553 14.8339 0.625616 14.0487C0.161375 13.1807 0 12.345 0 10.5932V6.40684C0 4.65499 0.161375 3.81933 0.625616 2.95127C1.04553 2.16609 1.66609 1.54553 2.45127 1.12562C3.31933 0.661375 4.15499 0.5 5.90684 0.5H10.0932ZM10.0932 1.95455H5.90684C4.37458 1.95455 3.76576 2.07211 3.13723 2.40825C2.60554 2.69261 2.19261 3.10554 1.90825 3.63723C1.57211 4.26576 1.45455 4.87458 1.45455 6.40684V10.5932C1.45455 12.1254 1.57211 12.7342 1.90825 13.3628C2.19261 13.8945 2.60554 14.3074 3.13723 14.5917C3.76576 14.9279 4.37458 15.0455 5.90684 15.0455H10.0932C11.6254 15.0455 12.2342 14.9279 12.8628 14.5917C13.3945 14.3074 13.8074 13.8945 14.0917 13.3628C14.4279 12.7342 14.5455 12.1254 14.5455 10.5932V6.40684C14.5455 4.87458 14.4279 4.26576 14.0917 3.63723C13.8074 3.10554 13.3945 2.69261 12.8628 2.40825C12.2342 2.07211 11.6254 1.95455 10.0932 1.95455Z" fill="#2A8EA2"/>
<path fill-rule="evenodd" clip-rule="evenodd" d="M8 4.4596C8.40166 4.4596 8.72727 4.78521 8.72727 5.18687V7.77273H11.3131C11.7148 7.77273 12.0404 8.09834 12.0404 8.5C12.0404 8.90166 11.7148 9.22727 11.3131 9.22727H8.72727V11.8131C8.72727 12.2148 8.40166 12.5404 8 12.5404C7.59833 12.5404 7.27272 12.2148 7.27272 11.8131V9.22727H4.68686C4.2852 9.22727 3.95959 8.90166 3.95959 8.5C3.95959 8.09834 4.2852 7.77273 4.68686 7.77273H7.27272V5.18687C7.27272 4.78521 7.59833 4.4596 8 4.4596Z" fill="#2A8EA2"/>
</svg>
